inDegrees=yes
name=teste1.mot
DataType=double
version=3
OpenSimVersion=4.4-2022-07-23-0e9fedc
endheader
time	q1	q2
1.005931138992309	134.8994463215157	-60.06248836209677
1.009756088256836	134.8994463215157	-60.06248836209677
1.013740062713623	134.8994463215157	-60.06248836209677
1.021730899810791	134.8994463215157	-60.06248836209677
1.027712106704712	134.8994463215157	-60.06248836209677
1.031711101531982	134.8994463215157	-60.06248836209677
1.035729885101318	134.8994463215157	-60.06248836209677
1.040709972381591	134.8994463215157	-60.06248836209677
1.046709060668945	134.8994463215157	-60.06248836209677
1.051707029342651	134.8994463215157	-60.06248836209677
1.056706190109253	134.8994463215157	-60.06248836209677
1.060710906982421	134.8994463215157	-60.06248836209677
1.065732955932617	134.8994463215157	-60.06248836209677
1.069709062576294	134.8994463215157	-60.06248836209677
1.074706077575683	134.8994463215157	-60.06248836209677
1.085735082626342	134.8994463215157	-60.06248836209677
1.089706182479858	134.8994463215157	-60.06248836209677
1.095726013183593	134.8994463215157	-60.06248836209677
1.09969687461853	134.8994463215157	-60.06248836209677
1.103708028793335	134.8994463215157	-60.06248836209677
1.108729839324951	134.8994463215157	-60.06248836209677
1.113705158233642	134.8994463215157	-60.06248836209677
1.118713855743408	134.8994463215157	-60.06248836209677
1.124747037887573	134.8994463215157	-60.06248836209677
1.129709243774414	134.8994463215157	-60.06248836209677
1.135704040527343	134.8994463215157	-60.06248836209677
1.143704175949096	134.8994463215157	-60.06248836209677
1.147706031799316	134.9028136898837	-60.06119929060733
1.153706073760986	134.9028136898837	-60.06119929060733
1.15870714187622	134.9028136898837	-60.06119929060733
1.16570496559143	134.9028136898837	-60.06119929060733
1.172720909118652	134.9028136898837	-60.06119929060733
1.178714036941528	134.9028136898837	-60.06119929060733
1.185697078704834	134.9028136898837	-60.06119929060733
1.191709041595459	134.9028136898837	-60.06119929060733
1.195728063583374	134.9028136898837	-60.06119929060733
1.204706192016601	134.9028136898837	-60.06119929060733
1.209710836410522	134.9028136898837	-60.06119929060733
1.214705944061279	134.9028136898837	-60.06119929060733
1.21970796585083	134.9028136898837	-60.06119929060733
1.223704814910888	134.9028136898837	-60.06119929060733
1.230704069137573	134.9028136898837	-60.06119929060733
1.23769998550415	134.9028136898837	-60.06119929060733
1.242707014083862	134.9028136898837	-60.06119929060733
1.247705936431884	134.9028136898837	-60.06119929060733
1.251704216003418	134.9028136898837	-60.06119929060733
1.255704164505004	134.9028136898837	-60.06119929060733
1.261706113815307	134.9028136898837	-60.06119929060733
1.266705989837646	134.9028136898837	-60.06119929060733
1.275704145431518	134.9028136898837	-60.06119929060733
1.282730102539062	134.9028136898837	-60.06119929060733
1.287704944610595	134.9028136898837	-60.06119929060733
1.291703224182129	134.9028136898837	-60.06119929060733
1.297704935073852	134.9028136898837	-60.06119929060733
1.3017098903656	134.9028136898837	-60.06119929060733
1.307704925537109	134.9028136898837	-60.06119929060733
1.315700054168701	134.9060601209466	-60.05912524741743
1.320703029632568	134.9060601209466	-60.05912524741743
1.325707197189331	134.9060601209466	-60.05912524741743
1.332703113555908	134.9060601209466	-60.05912524741743
1.336700916290283	134.9060601209466	-60.05912524741743
1.340702056884765	134.9060601209466	-60.05912524741743
1.344702959060669	134.9060601209466	-60.05912524741743
1.349722862243652	134.9060601209466	-60.05912524741743
1.353723049163818	134.9060601209466	-60.05912524741743
1.357699155807495	134.9060601209466	-60.05912524741743
1.365715026855468	134.9060601209466	-60.05912524741743
1.369727134704589	134.9060601209466	-60.05912524741743
1.374701023101806	134.9060601209466	-60.05912524741743
1.37870192527771	134.9060601209466	-60.05912524741743
1.383736133575439	134.9060601209466	-60.05912524741743
1.391703128814697	134.9060601209466	-60.05912524741743
